<mxfile host="app.diagrams.net" modified="2024-04-02T00:40:52.831Z" agent="Mozilla/5.0 (Windows NT 10.0; Win64; x64) AppleWebKit/537.36 (KHTML, like Gecko) Chrome/123.0.0.0 Safari/537.36" etag="6Mii-Y83SHQ48OyCKJ90" version="24.2.1" type="google">
  <diagram name="Página-1" id="W96qsjiCgVPILVUTgbw7">
    <mxGraphModel grid="0" page="0" gridSize="10" guides="1" tooltips="1" connect="1" arrows="1" fold="1" pageScale="1" pageWidth="827" pageHeight="1169" math="0" shadow="0">
      <root>
        <mxCell id="0" />
        <mxCell id="1" parent="0" />
        <mxCell id="JLs1hbFGK3mNBrMvpL7n-55" style="edgeStyle=none;curved=1;rounded=0;orthogonalLoop=1;jettySize=auto;html=1;exitX=0.5;exitY=0.5;exitDx=0;exitDy=0;exitPerimeter=0;fontSize=12;startSize=8;endSize=8;" edge="1" parent="1" source="7GfxxB9h6kD8QiFGx-IR-1" target="JLs1hbFGK3mNBrMvpL7n-50">
          <mxGeometry relative="1" as="geometry" />
        </mxCell>
        <mxCell id="JLs1hbFGK3mNBrMvpL7n-71" style="edgeStyle=orthogonalEdgeStyle;rounded=0;orthogonalLoop=1;jettySize=auto;html=1;exitX=0.5;exitY=0.5;exitDx=0;exitDy=0;exitPerimeter=0;entryX=0;entryY=0.5;entryDx=0;entryDy=0;fontSize=12;startSize=8;endSize=8;" edge="1" parent="1" source="7GfxxB9h6kD8QiFGx-IR-1" target="JLs1hbFGK3mNBrMvpL7n-60">
          <mxGeometry relative="1" as="geometry">
            <Array as="points">
              <mxPoint x="-212" y="278" />
              <mxPoint x="-212" y="230" />
            </Array>
          </mxGeometry>
        </mxCell>
        <mxCell id="JLs1hbFGK3mNBrMvpL7n-72" style="edgeStyle=orthogonalEdgeStyle;rounded=0;orthogonalLoop=1;jettySize=auto;html=1;exitX=0.5;exitY=0.5;exitDx=0;exitDy=0;exitPerimeter=0;entryX=0;entryY=0.5;entryDx=0;entryDy=0;fontSize=12;startSize=8;endSize=8;" edge="1" parent="1" source="7GfxxB9h6kD8QiFGx-IR-1" target="JLs1hbFGK3mNBrMvpL7n-62">
          <mxGeometry relative="1" as="geometry">
            <Array as="points">
              <mxPoint x="-211" y="278" />
              <mxPoint x="-211" y="329" />
            </Array>
          </mxGeometry>
        </mxCell>
        <mxCell id="7GfxxB9h6kD8QiFGx-IR-1" value="Usuario&lt;div&gt;&lt;br&gt;&lt;/div&gt;" style="shape=umlActor;verticalLabelPosition=bottom;verticalAlign=top;html=1;outlineConnect=0;" vertex="1" parent="1">
          <mxGeometry x="-274" y="248" width="30" height="60" as="geometry" />
        </mxCell>
        <mxCell id="JLs1hbFGK3mNBrMvpL7n-40" style="edgeStyle=none;curved=1;rounded=0;orthogonalLoop=1;jettySize=auto;html=1;exitX=0.5;exitY=0.5;exitDx=0;exitDy=0;exitPerimeter=0;entryX=0;entryY=0.5;entryDx=0;entryDy=0;fontSize=12;startSize=8;endSize=8;" edge="1" parent="1" source="XJMGst-rCKcoRZPM2Gby-3" target="JLs1hbFGK3mNBrMvpL7n-33">
          <mxGeometry relative="1" as="geometry" />
        </mxCell>
        <mxCell id="JLs1hbFGK3mNBrMvpL7n-74" style="edgeStyle=orthogonalEdgeStyle;rounded=0;orthogonalLoop=1;jettySize=auto;html=1;exitX=0.5;exitY=0.5;exitDx=0;exitDy=0;exitPerimeter=0;entryX=0;entryY=0.5;entryDx=0;entryDy=0;fontSize=12;startSize=8;endSize=8;" edge="1" parent="1" source="XJMGst-rCKcoRZPM2Gby-3" target="JLs1hbFGK3mNBrMvpL7n-73">
          <mxGeometry relative="1" as="geometry" />
        </mxCell>
        <mxCell id="XJMGst-rCKcoRZPM2Gby-3" value="Administrador" style="shape=umlActor;verticalLabelPosition=bottom;verticalAlign=top;html=1;outlineConnect=0;" vertex="1" parent="1">
          <mxGeometry x="-277" y="428" width="30" height="60" as="geometry" />
        </mxCell>
        <mxCell id="XJMGst-rCKcoRZPM2Gby-4" value="" style="rounded=1;whiteSpace=wrap;html=1;arcSize=13;fillColor=none;" vertex="1" parent="1">
          <mxGeometry x="-185" y="170" width="509" height="378" as="geometry" />
        </mxCell>
        <mxCell id="XJMGst-rCKcoRZPM2Gby-5" value="Aplicación" style="text;html=1;align=center;verticalAlign=middle;resizable=0;points=[];autosize=1;strokeColor=none;fillColor=none;" vertex="1" parent="1">
          <mxGeometry x="12" y="144" width="73" height="26" as="geometry" />
        </mxCell>
        <mxCell id="JLs1hbFGK3mNBrMvpL7n-11" style="edgeStyle=none;curved=1;rounded=0;orthogonalLoop=1;jettySize=auto;html=1;entryX=0;entryY=0.5;entryDx=0;entryDy=0;fontSize=12;startSize=8;endSize=8;" edge="1" parent="1">
          <mxGeometry relative="1" as="geometry">
            <mxPoint x="-33" y="333.81818181818176" as="sourcePoint" />
          </mxGeometry>
        </mxCell>
        <mxCell id="JLs1hbFGK3mNBrMvpL7n-12" style="edgeStyle=none;curved=1;rounded=0;orthogonalLoop=1;jettySize=auto;html=1;entryX=0;entryY=0.5;entryDx=0;entryDy=0;fontSize=12;startSize=8;endSize=8;" edge="1" parent="1">
          <mxGeometry relative="1" as="geometry">
            <mxPoint x="125" y="336.81218274111666" as="sourcePoint" />
          </mxGeometry>
        </mxCell>
        <mxCell id="JLs1hbFGK3mNBrMvpL7n-43" style="edgeStyle=none;curved=1;rounded=0;orthogonalLoop=1;jettySize=auto;html=1;fontSize=12;startSize=8;endSize=8;" edge="1" parent="1" source="JLs1hbFGK3mNBrMvpL7n-33" target="JLs1hbFGK3mNBrMvpL7n-34">
          <mxGeometry relative="1" as="geometry" />
        </mxCell>
        <mxCell id="JLs1hbFGK3mNBrMvpL7n-33" value="Crea envio" style="rounded=1;whiteSpace=wrap;html=1;" vertex="1" parent="1">
          <mxGeometry x="-146" y="440" width="93" height="36" as="geometry" />
        </mxCell>
        <mxCell id="JLs1hbFGK3mNBrMvpL7n-41" style="edgeStyle=orthogonalEdgeStyle;rounded=0;orthogonalLoop=1;jettySize=auto;html=1;entryX=1;entryY=0.5;entryDx=0;entryDy=0;fontSize=12;startSize=8;endSize=8;" edge="1" parent="1" source="JLs1hbFGK3mNBrMvpL7n-34" target="JLs1hbFGK3mNBrMvpL7n-38">
          <mxGeometry relative="1" as="geometry">
            <Array as="points">
              <mxPoint x="69" y="374" />
            </Array>
          </mxGeometry>
        </mxCell>
        <mxCell id="JLs1hbFGK3mNBrMvpL7n-46" style="edgeStyle=none;curved=1;rounded=0;orthogonalLoop=1;jettySize=auto;html=1;fontSize=12;startSize=8;endSize=8;" edge="1" parent="1" source="JLs1hbFGK3mNBrMvpL7n-34" target="JLs1hbFGK3mNBrMvpL7n-44">
          <mxGeometry relative="1" as="geometry" />
        </mxCell>
        <mxCell id="JLs1hbFGK3mNBrMvpL7n-34" value="Asigna envio" style="rounded=1;whiteSpace=wrap;html=1;" vertex="1" parent="1">
          <mxGeometry x="25" y="440" width="93" height="36" as="geometry" />
        </mxCell>
        <mxCell id="JLs1hbFGK3mNBrMvpL7n-53" style="edgeStyle=orthogonalEdgeStyle;rounded=0;orthogonalLoop=1;jettySize=auto;html=1;exitX=0.5;exitY=0.5;exitDx=0;exitDy=0;exitPerimeter=0;entryX=1;entryY=0.5;entryDx=0;entryDy=0;fontSize=12;startSize=8;endSize=8;" edge="1" parent="1" source="JLs1hbFGK3mNBrMvpL7n-37" target="JLs1hbFGK3mNBrMvpL7n-52">
          <mxGeometry relative="1" as="geometry">
            <Array as="points">
              <mxPoint x="391" y="386" />
              <mxPoint x="391" y="271" />
            </Array>
          </mxGeometry>
        </mxCell>
        <mxCell id="JLs1hbFGK3mNBrMvpL7n-37" value="Conductor" style="shape=umlActor;verticalLabelPosition=bottom;verticalAlign=top;html=1;outlineConnect=0;" vertex="1" parent="1">
          <mxGeometry x="423" y="356" width="30" height="60" as="geometry" />
        </mxCell>
        <mxCell id="JLs1hbFGK3mNBrMvpL7n-42" style="edgeStyle=orthogonalEdgeStyle;rounded=0;orthogonalLoop=1;jettySize=auto;html=1;fontSize=12;startSize=8;endSize=8;" edge="1" parent="1" source="JLs1hbFGK3mNBrMvpL7n-38">
          <mxGeometry relative="1" as="geometry">
            <mxPoint x="-261" y="338" as="targetPoint" />
          </mxGeometry>
        </mxCell>
        <mxCell id="JLs1hbFGK3mNBrMvpL7n-38" value="Notifica Envio" style="rounded=1;whiteSpace=wrap;html=1;" vertex="1" parent="1">
          <mxGeometry x="-146" y="356" width="93" height="36" as="geometry" />
        </mxCell>
        <mxCell id="JLs1hbFGK3mNBrMvpL7n-49" style="edgeStyle=orthogonalEdgeStyle;rounded=0;orthogonalLoop=1;jettySize=auto;html=1;exitX=1;exitY=0.5;exitDx=0;exitDy=0;fontSize=12;startSize=8;endSize=8;" edge="1" parent="1" source="JLs1hbFGK3mNBrMvpL7n-44">
          <mxGeometry relative="1" as="geometry">
            <mxPoint x="443" y="433" as="targetPoint" />
          </mxGeometry>
        </mxCell>
        <mxCell id="JLs1hbFGK3mNBrMvpL7n-44" value="Notifica Asignación" style="rounded=1;whiteSpace=wrap;html=1;" vertex="1" parent="1">
          <mxGeometry x="184" y="440" width="93" height="36" as="geometry" />
        </mxCell>
        <mxCell id="JLs1hbFGK3mNBrMvpL7n-48" style="edgeStyle=none;curved=1;rounded=0;orthogonalLoop=1;jettySize=auto;html=1;entryX=1;entryY=0.5;entryDx=0;entryDy=0;fontSize=12;startSize=8;endSize=8;" edge="1" parent="1" source="JLs1hbFGK3mNBrMvpL7n-44" target="JLs1hbFGK3mNBrMvpL7n-44">
          <mxGeometry relative="1" as="geometry" />
        </mxCell>
        <mxCell id="JLs1hbFGK3mNBrMvpL7n-59" style="edgeStyle=none;curved=1;rounded=0;orthogonalLoop=1;jettySize=auto;html=1;fontSize=12;startSize=8;endSize=8;" edge="1" parent="1" source="JLs1hbFGK3mNBrMvpL7n-50" target="JLs1hbFGK3mNBrMvpL7n-58">
          <mxGeometry relative="1" as="geometry" />
        </mxCell>
        <mxCell id="JLs1hbFGK3mNBrMvpL7n-50" value="Obtiene información envíos" style="rounded=1;whiteSpace=wrap;html=1;" vertex="1" parent="1">
          <mxGeometry x="-142" y="260" width="107" height="36" as="geometry" />
        </mxCell>
        <mxCell id="JLs1hbFGK3mNBrMvpL7n-52" value="Actualiza localización envio" style="rounded=1;whiteSpace=wrap;html=1;" vertex="1" parent="1">
          <mxGeometry x="201" y="245" width="99" height="51" as="geometry" />
        </mxCell>
        <mxCell id="JLs1hbFGK3mNBrMvpL7n-57" style="edgeStyle=none;curved=1;rounded=0;orthogonalLoop=1;jettySize=auto;html=1;exitX=0.25;exitY=1;exitDx=0;exitDy=0;fontSize=12;startSize=8;endSize=8;" edge="1" parent="1">
          <mxGeometry relative="1" as="geometry">
            <mxPoint x="27.25" y="298" as="sourcePoint" />
            <mxPoint x="27.25" y="298" as="targetPoint" />
          </mxGeometry>
        </mxCell>
        <mxCell id="JLs1hbFGK3mNBrMvpL7n-58" value="Consulta localización" style="rounded=1;whiteSpace=wrap;html=1;" vertex="1" parent="1">
          <mxGeometry x="27" y="260" width="107" height="36" as="geometry" />
        </mxCell>
        <mxCell id="JLs1hbFGK3mNBrMvpL7n-60" value="Cambia fecha de entrega" style="rounded=1;whiteSpace=wrap;html=1;" vertex="1" parent="1">
          <mxGeometry x="-142" y="212" width="107" height="36" as="geometry" />
        </mxCell>
        <mxCell id="JLs1hbFGK3mNBrMvpL7n-61" value="Recibe confirmación" style="rounded=1;whiteSpace=wrap;html=1;" vertex="1" parent="1">
          <mxGeometry x="190" y="311" width="107" height="36" as="geometry" />
        </mxCell>
        <mxCell id="JLs1hbFGK3mNBrMvpL7n-63" style="edgeStyle=none;curved=1;rounded=0;orthogonalLoop=1;jettySize=auto;html=1;entryX=0;entryY=0.5;entryDx=0;entryDy=0;fontSize=12;startSize=8;endSize=8;" edge="1" parent="1" source="JLs1hbFGK3mNBrMvpL7n-62" target="JLs1hbFGK3mNBrMvpL7n-61">
          <mxGeometry relative="1" as="geometry" />
        </mxCell>
        <mxCell id="JLs1hbFGK3mNBrMvpL7n-62" value="Confirma entrega" style="rounded=1;whiteSpace=wrap;html=1;" vertex="1" parent="1">
          <mxGeometry x="-142" y="311" width="107" height="36" as="geometry" />
        </mxCell>
        <mxCell id="JLs1hbFGK3mNBrMvpL7n-70" style="edgeStyle=orthogonalEdgeStyle;rounded=0;orthogonalLoop=1;jettySize=auto;html=1;entryX=0.5;entryY=0;entryDx=0;entryDy=0;fontSize=12;startSize=8;endSize=8;" edge="1" parent="1" source="JLs1hbFGK3mNBrMvpL7n-67" target="JLs1hbFGK3mNBrMvpL7n-58">
          <mxGeometry relative="1" as="geometry" />
        </mxCell>
        <mxCell id="JLs1hbFGK3mNBrMvpL7n-67" value="Revisa entregas pendientes" style="rounded=1;whiteSpace=wrap;html=1;" vertex="1" parent="1">
          <mxGeometry x="201" y="189" width="99" height="51" as="geometry" />
        </mxCell>
        <mxCell id="JLs1hbFGK3mNBrMvpL7n-68" style="edgeStyle=orthogonalEdgeStyle;rounded=0;orthogonalLoop=1;jettySize=auto;html=1;exitX=0.5;exitY=0.5;exitDx=0;exitDy=0;exitPerimeter=0;entryX=0.98;entryY=0.392;entryDx=0;entryDy=0;entryPerimeter=0;fontSize=12;startSize=8;endSize=8;" edge="1" parent="1" source="JLs1hbFGK3mNBrMvpL7n-37" target="JLs1hbFGK3mNBrMvpL7n-67">
          <mxGeometry relative="1" as="geometry">
            <Array as="points">
              <mxPoint x="391" y="386" />
              <mxPoint x="391" y="209" />
            </Array>
          </mxGeometry>
        </mxCell>
        <mxCell id="JLs1hbFGK3mNBrMvpL7n-73" value="Revisa localización envios" style="rounded=1;whiteSpace=wrap;html=1;" vertex="1" parent="1">
          <mxGeometry x="-146" y="493" width="107" height="36" as="geometry" />
        </mxCell>
        <mxCell id="JLs1hbFGK3mNBrMvpL7n-75" style="edgeStyle=orthogonalEdgeStyle;rounded=0;orthogonalLoop=1;jettySize=auto;html=1;fontSize=12;startSize=8;endSize=8;" edge="1" parent="1" source="JLs1hbFGK3mNBrMvpL7n-61">
          <mxGeometry relative="1" as="geometry">
            <mxPoint x="453" y="433" as="targetPoint" />
            <Array as="points">
              <mxPoint x="310" y="329" />
              <mxPoint x="310" y="457" />
              <mxPoint x="453" y="457" />
            </Array>
          </mxGeometry>
        </mxCell>
      </root>
    </mxGraphModel>
  </diagram>
</mxfile>
